<svg width="689" height="238" viewBox="0 0 689 238" fill="none" xmlns="http://www.w3.org/2000/svg">
<path fill-rule="evenodd" clip-rule="evenodd" d="M0 237.955L4.36103 220.455L19.6502 219.704L30.3373 213.14L41.5101 212.779L49.6521 203.128L56.8132 178.036L61.4039 169.058L73.6643 187.785L83.6355 190.634L90.9314 185.198L99.7347 161.233L124.975 209.823L135.367 188.895L147.281 199.399L153.703 183.384L154.956 175.7L164.628 167.853L169.622 157.189L175.143 172.085L174.229 181.866L179.322 183.312L183.273 178.958L193.342 110.03L203.185 200.417L211.734 187.533V180.174L219.042 172.571L222.463 166.743L228.759 157.977L243.728 167.117L251.179 172.085L257.195 168.869L267.687 183.323L282.948 154.915L287.413 170.407L296.982 181.124L306.258 177.691L310.591 170.405L317.526 167.113L318.4 160.857L326.314 145.474L337.933 149.843L344.186 138.666L357.409 225.86L368.767 207.924L383.736 206.67L401.672 219.399L408.641 169.745L417.382 172.54L421.496 166.704L423.814 168.568L428.162 167.999L430.647 170.51L437.55 172.148L437.673 177.704L445.924 181.226L456.235 180.447L456.777 171.147L459.37 134.606L467.113 135.236L476.173 143.62L498.842 126.475L508.615 108.898L512.962 114.464L514.605 119.984L522.57 126.308L536.104 114.603L560.826 78L568.003 91.6411L588.287 113.919L595.927 104.101L604.234 99.5437L618.401 106.371L627.337 99.785L642.824 108.677L650.069 91.1222L664.147 91.5984L666.671 95.6618L689 85.9027V237.955H57.0295H0Z" fill="url(#paint0_linear_691_0)"/>
<path d="M103.699 1V201" stroke="#CFE8FB" stroke-linecap="square"/>
<path d="M219.699 1V201" stroke="#CFE8FB" stroke-linecap="square"/>
<path d="M339.699 1V201" stroke="#CFE8FB" stroke-linecap="square"/>
<path d="M456.688 1V201" stroke="#CFE8FB" stroke-linecap="square"/>
<path d="M578.688 1V201" stroke="#CFE8FB" stroke-linecap="square"/>
<defs>
<linearGradient id="paint0_linear_691_0" x1="55.3508" y1="130.988" x2="55.3508" y2="265.244" gradientUnits="userSpaceOnUse">
<stop stop-color="#0294FF" stop-opacity="0.45"/>
<stop offset="1" stop-color="white" stop-opacity="0.01"/>
</linearGradient>
</defs>
</svg>
