<svg width="17" height="18" viewBox="0 0 17 18" fill="none" xmlns="http://www.w3.org/2000/svg">
<path d="M3.18182 14.0909V1H16.2727V14.0909C16.2727 14.8624 15.9662 15.6024 15.4207 16.1479C14.8751 16.6935 14.1352 17 13.3636 17" stroke="#647787" stroke-miterlimit="10" stroke-linecap="round" stroke-linejoin="round"/>
<path d="M10.4545 14.0909H1C1 14.8625 1.30649 15.6024 1.85205 16.1479C2.39761 16.6935 3.13755 17 3.90909 17H13.3636C12.5921 17 11.8522 16.6935 11.3066 16.1479C10.761 15.6024 10.4545 14.8625 10.4545 14.0909Z" stroke="#647787" stroke-miterlimit="10" stroke-linecap="round" stroke-linejoin="round"/>
<path d="M9 7.54544H13.3636" stroke="#647787" stroke-miterlimit="10" stroke-linejoin="round"/>
<path d="M6.09088 7.54544H7.54543" stroke="#647787" stroke-miterlimit="10" stroke-linejoin="round"/>
<path d="M9 10.4546H13.3636" stroke="#647787" stroke-miterlimit="10" stroke-linejoin="round"/>
<path d="M6.09088 10.4546H7.54543" stroke="#647787" stroke-miterlimit="10" stroke-linejoin="round"/>
<path d="M9 4.63635H13.3636" stroke="#647787" stroke-miterlimit="10" stroke-linejoin="round"/>
<path d="M6.09088 4.63635H7.54543" stroke="#647787" stroke-miterlimit="10" stroke-linejoin="round"/>
<path d="M9.9914 14.5909C10.0979 15.3094 10.4321 15.9799 10.9515 16.5H3.90909C3.27016 16.5 2.6574 16.2462 2.20561 15.7944C1.87356 15.4623 1.64845 15.0433 1.55245 14.5909H9.9914Z" fill="#647787" stroke="#647787"/>
</svg>
