<svg width="19" height="21" viewBox="0 0 19 21" fill="none" xmlns="http://www.w3.org/2000/svg">
<path d="M16.4286 9.00001V4.42858H13H5.57143H2.71429C1.76743 4.42858 1 3.66115 1 2.71429V14.7143C1 15.9766 2.02343 17 3.28571 17H16.4286V12.4286" stroke="#647787" stroke-miterlimit="10" stroke-linecap="square"/>
<path d="M18.1429 12.4286H14.1429C13.196 12.4286 12.4286 11.6611 12.4286 10.7143C12.4286 9.76743 13.196 9 14.1429 9H18.1429V12.4286Z" stroke="#647787" stroke-miterlimit="10" stroke-linecap="square"/>
<circle cx="12.5" cy="15.5" r="5" fill="white" stroke="#647787"/>
<path d="M15.2205 12.7795L9.7793 18.2207" stroke="#647787"/>
<path d="M15.1909 18.25L9.80911 12.75" stroke="#647787"/>
<path d="M13 2.14286V1H2.71429C1.76743 1 1 1.76743 1 2.71429C1 3.66114 1.76743 4.42857 2.71429 4.42857" stroke="#647787" stroke-miterlimit="10" stroke-linecap="square"/>
</svg>
